<svg width="22" height="22" viewBox="0 0 22 22" fill="none" xmlns="http://www.w3.org/2000/svg">
<path d="M10.9906 0.787599C5.19453 0.785255 0.5 5.47744 0.5 11.2688C0.5 15.8485 3.43672 19.7415 7.52656 21.1712C8.07734 21.3095 7.99297 20.9181 7.99297 20.6509V18.8345C4.8125 19.2071 4.68359 17.1024 4.47031 16.7509C4.03906 16.0149 3.01953 15.8274 3.32422 15.4759C4.04844 15.1032 4.78672 15.5696 5.64219 16.8329C6.26094 17.7493 7.46797 17.5946 8.07969 17.4423C8.21328 16.8915 8.49922 16.3993 8.89297 16.0173C5.59766 15.4267 4.22422 13.4157 4.22422 11.0251C4.22422 9.86494 4.60625 8.79854 5.35625 7.93838C4.87812 6.52041 5.40078 5.30635 5.47109 5.12588C6.83281 5.004 8.24844 6.10088 8.35859 6.1876C9.13203 5.97901 10.0156 5.86885 11.0047 5.86885C11.9984 5.86885 12.8844 5.98369 13.6648 6.19463C13.9297 5.99307 15.2422 5.05088 16.5078 5.16572C16.5758 5.34619 17.0867 6.53213 16.6367 7.93135C17.3961 8.79385 17.7828 9.86963 17.7828 11.0321C17.7828 13.4274 16.4 15.4407 13.0953 16.022C13.3784 16.3003 13.6031 16.6323 13.7564 16.9985C13.9098 17.3647 13.9886 17.7578 13.9883 18.1548V20.7915C14.007 21.0024 13.9883 21.211 14.3398 21.211C18.4906 19.8118 21.4789 15.8907 21.4789 11.2712C21.4789 5.47744 16.782 0.787599 10.9906 0.787599Z" fill="white"/>
</svg>
